<svg xmlns="http://www.w3.org/2000/svg" xmlns:svg="http://www.w3.org/2000/svg" id="svg2" width="1312" height="736" version="1.1"><metadata id="metadata29"/><path id="path13" d="m 80,528 112,0 0,112 -112,0 z m 16,16 80,0 0,80 -80,0 z m 16,16 48,0 0,48 -48,0 z m 64,-48 16,0 0,-16 -16,0 z m 0,-32 16,0 0,-16 -16,0 z m 0,-32 16,0 0,-16 -16,0 z m 0,-32 16,0 0,-16 -16,0 z m 0,-32 16,0 0,-16 -16,0 z m 0,-32 16,0 0,-16 -16,0 z m 0,-32 16,0 0,-16 -16,0 z m 0,-32 16,0 0,-16 -16,0 z m 0,-32 16,0 0,-16 -16,0 z m -96,-144 112,0 0,112 -112,0 z m 16,16 80,0 0,80 -80,0 z m 16,16 48,0 0,48 -48,0 z m 272,80 0,-16 -16,0 0,16 z m -32,0 0,-16 -16,0 0,16 z m -32,0 0,-16 -16,0 0,16 z m -32,0 0,-16 -16,0 0,16 z m -32,0 0,-16 -16,0 0,16 z m -32,0 0,-16 -16,0 0,16 z m 256,0 0,-16 -16,0 0,16 z m -32,0 0,-16 -16,0 0,16 z m -32,0 0,-16 -16,0 0,16 z m 80,-112 112,0 0,112 -112,0 z m 16,16 80,0 0,80 -80,0 z m 16,16 48,0 0,48 -48,0 z m -64,432 80,0 0,-80 -80,0 z m 16,-16 48,0 0,-48 -48,0 z m 16,-16 16,0 0,-16 -16,0 z m 256,-272 0,-16 -16,0 0,16 z m -32,0 0,-16 -16,0 0,16 z m 16,16 0,-16 -16,0 0,16 z m -32,0 0,-16 -16,0 0,16 z m 48,16 0,-16 -16,0 0,16 z m -32,0 0,-16 -16,0 0,16 z m 16,16 0,-16 -16,0 0,16 z m -32,0 0,-16 -16,0 0,16 z m 80,16 112,0 0,112 -112,0 z m 16,16 80,0 0,80 -80,0 z m 16,16 48,0 0,48 -48,0 z m -16,176 80,0 0,-80 -80,0 z m 16,-16 48,0 0,-48 -48,0 z m 16,-16 16,0 0,-16 -16,0 z m 0,128 16,0 0,-16 -16,0 z m 0,-32 16,0 0,-16 -16,0 z m 0,-32 16,0 0,-16 -16,0 z m -528,-464 0,16 16,0 0,16 -16,0 0,16 -16,0 0,32 -16,0 0,-32 -16,0 0,-16 -32,0 0,-16 16,0 0,-16 z m -96,32 16,0 0,16 32,0 0,16 -16,0 0,16 16,0 0,16 -48,0 z m 96,16 0,16 16,0 0,16 -32,0 0,16 80,0 0,-16 -32,0 0,-16 16,0 0,-16 z m 32,-48 0,16 16,0 0,32 48,0 0,16 16,0 0,16 32,0 0,-16 -16,0 0,-32 -32,0 0,-16 -16,0 0,16 -16,0 0,-32 z m 80,0 16,0 0,16 -16,0 z m 16,16 32,0 0,16 -32,0 z m 32,64 16,0 0,-32 -16,0 z m -384,48 16,0 0,16 16,0 0,16 -16,0 0,16 -16,0 z m 32,0 0,16 16,0 0,16 16,0 0,-16 32,0 0,-16 z m 96,-16 0,16 16,0 0,-16 z m -128,80 16,0 0,32 16,0 0,-16 16,0 0,16 16,0 0,-16 -16,0 0,-16 -16,0 0,-16 48,0 0,-16 16,0 0,32 -16,0 0,48 -16,0 0,16 32,0 0,32 -16,0 0,16 16,0 0,16 -32,0 0,-48 -16,0 0,-16 -48,0 z m 0,80 0,16 16,0 0,-16 z m 16,16 0,16 32,0 0,-16 z m -16,16 0,16 16,0 0,-16 z m 0,32 16,0 0,64 -16,0 z m 32,-16 0,48 16,0 0,16 16,0 0,-48 -16,0 0,-16 z m 0,64 16,0 0,16 -16,0 z m 64,0 -16,0 0,16 16,0 z m 32,-240 0,16 -16,0 0,48 16,0 0,32 16,0 0,-16 16,0 0,16 16,0 0,32 16,0 0,16 32,0 0,16 -16,0 0,16 32,0 0,-32 16,0 0,-16 -48,0 0,-16 -16,0 0,-16 16,0 0,-16 -32,0 0,-16 32,0 0,-16 -48,0 0,-32 -16,0 0,-16 z m 0,32 0,16 16,0 0,-16 z m -16,64 16,0 0,32 16,0 0,-32 16,0 0,48 -16,0 0,16 16,0 0,-16 16,0 0,16 16,0 0,16 -48,0 0,16 -16,0 0,32 -16,0 0,-48 16,0 0,-32 -16,0 z m 32,96 0,16 32,0 0,-16 z m 48,-16 16,0 0,16 -16,0 z m 16,16 16,0 0,16 -16,0 z m 80,0 16,0 0,16 -16,0 z m -144,160 16,0 0,16 -16,0 z m -16,16 16,0 0,16 -16,0 z m 80,0 32,0 0,16 -32,0 z m 48,16 16,0 0,-32 -16,0 z m -32,-48 16,0 0,16 -16,0 z m 32,-48 16,0 0,16 -16,0 z m 32,16 16,0 0,16 -16,0 z m -16,32 16,0 0,16 -16,0 z m 240,16 16,0 0,16 -16,0 z m -48,-32 32,0 0,16 -32,0 z m 48,-64 16,0 0,16 -16,0 z m 0,-96 16,0 0,16 -16,0 z m -112,-144 16,0 0,16 -16,0 z m -16,-32 16,0 0,32 -16,0 z m -96,-64 16,0 0,16 -16,0 z m 32,16 16,0 0,16 -16,0 z m 32,32 16,0 0,16 -16,0 z m -64,48 16,0 0,16 -16,0 z m 64,0 16,0 0,16 -16,0 z m 16,16 16,0 0,16 -16,0 z m -64,16 -16,0 0,16 16,0 z m -48,-16 16,0 0,16 -16,0 z m -16,0 -16,0 0,16 16,0 z m -64,-16 16,0 0,16 -16,0 z m 16,-16 16,0 0,16 -16,0 z m 208,128 16,0 0,32 -16,0 z m -16,-16 16,0 0,16 -16,0 z m -16,48 16,0 0,16 -16,0 z m 16,16 16,0 0,16 -16,0 z m -192,-192 -32,0 0,32 16,0 0,-16 16,0 z m 16,-16 0,32 16,0 0,16 16,0 0,16 16,0 0,-32 48,0 0,-32 -32,0 0,16 -16,0 0,-16 -16,0 0,16 -16,0 0,-16 z m 112,16 0,16 -16,0 0,16 16,0 0,16 -16,0 0,16 48,0 0,-16 -16,0 0,-16 16,0 0,-16 -16,0 0,-16 z m 32,64 0,16 -32,0 0,16 48,0 0,16 16,0 0,-32 -16,0 0,-16 z m 48,0 0,32 16,0 0,-16 16,0 0,-16 z m 16,-64 0,16 48,0 0,16 16,0 0,48 -16,0 0,-32 -16,0 0,48 -16,0 0,16 -16,0 0,32 16,0 0,-16 16,0 0,-16 16,0 0,32 -16,0 0,32 -32,0 0,16 48,0 0,-16 16,0 0,-16 16,0 0,16 16,0 0,-16 16,0 0,-64 -32,0 0,16 16,0 0,16 -16,0 0,16 -16,0 0,-16 16,0 0,-16 -16,0 0,-16 16,0 0,-48 16,0 0,16 16,0 0,-48 -32,0 0,-16 z m 64,176 0,32 -48,0 0,32 32,0 0,-16 64,0 0,-16 -16,0 0,-16 -16,0 0,-16 z m 16,64 0,16 -32,0 0,16 16,0 0,16 16,0 0,-16 16,0 0,-32 z m 0,64 0,32 16,0 0,-16 16,0 0,-16 z m -80,32 0,16 16,0 0,16 16,0 0,-32 z m 32,32 0,16 -32,0 0,16 64,0 0,-16 -16,0 0,-16 z m -144,-32 0,32 -16,0 0,16 32,0 0,-16 16,0 0,-16 -16,0 0,-16 z m 16,48 0,16 48,0 0,-16 -16,0 0,-16 -16,0 0,16 z m 16,-48 0,16 16,0 0,16 16,0 0,16 48,0 0,-16 -16,0 0,-16 -16,0 0,-16 z m 16,-32 0,16 32,0 0,-16 z m 64,-64 0,16 16,0 0,-16 z m -16,-32 0,16 -16,0 0,-16 -16,0 0,-16 -16,0 0,-16 -16,0 0,48 32,0 0,32 16,0 0,-16 32,0 0,-32 z m -48,48 0,16 -48,0 0,-16 -16,0 0,48 16,0 0,16 16,0 0,16 16,0 0,-32 -16,0 0,-16 48,0 0,-32 z m -112,64 0,32 32,0 0,-16 -16,0 0,-16 z m -64,16 0,48 -16,0 0,16 32,0 0,-32 16,0 0,-16 -16,0 0,-16 z m -48,32 16,0 0,-16 16,0 0,-48 48,0 0,16 32,0 0,-16 -16,0 0,-16 16,0 0,16 16,0 0,-16 16,0 0,-16 -16,0 0,-32 32,0 0,-16 -32,0 0,-16 16,0 0,-16 48,0 0,-32 32,0 0,16 16,0 0,-48 -16,0 0,16 -32,0 0,-16 16,0 0,-16 -16,0 0,-16 -16,0 0,16 -16,0 0,-16 -16,0 0,16 -16,0 0,32 16,0 0,-16 16,0 0,16 16,0 0,32 -16,0 0,-32 -16,0 0,32 -16,0 0,16 -16,0 0,32 -16,0 0,16 16,0 0,16 -16,0 0,16 -16,0 0,-32 -16,0 0,48 -32,0 0,-16 16,0 0,-32 -16,0 0,16 -32,0 0,32 16,0 0,16 -16,0 z m 112,-288 -16,0 0,16 48,0 0,-16 -16,0 0,-16 -16,0 z" style="fill-rule:evenodd"/><path id="path271" d="m 688,79.999997 64,0 0,-64 -64,0 z M 80,512 l 96,0 0,-48 -96,0 z m 400,-400 -48,0 0,96 48,0 z" style="opacity:.75;fill:#4242ff;fill-rule:evenodd"/><path id="path273" d="m 688,176 64,0 0,64 -64,0 z m -464,-64 0,96 208,0 0,-96 z m 0,112 0,32 -32,0 0,256 16,0 0,128 400,0 0,-384 -128,0 0,-32 z m 240,272 80,0 0,80 -80,0 z M 80,256 l 96,0 0,208 -96,0 z" style="opacity:.75;fill:#a1a1a1;fill-rule:evenodd"/><path id="path275" d="m 688,95.999997 64,0 L 752,160 688,160 z M 208,112 l 16,0 0,96 -16,0 z m -128,128 96,0 0,16 -96,0 z m 112,0 16,0 0,-16 16,0 0,32 -32,0 z m 16,272 16,0 0,128 -16,0 z m 272,-272 128,0 0,16 -128,0 z" style="opacity:.75;fill:#ff4242;fill-rule:evenodd"/><path id="rect5661" d="m 688,656 64,0 0,64.00002 -64,0 z M 80,112 l 528,0 0,528 -528,0 z m -64,-64.000003 656,0 0,656.000023 -656,0 z" style="fill:#41ff41;fill-opacity:.74901961;fill-rule:evenodd;stroke:none"/><text id="text5665" x="768" y="60" xml:space="preserve" style="font-size:32px;font-style:normal;font-variant:normal;font-weight:400;font-stretch:normal;line-height:125%;letter-spacing:0;word-spacing:0;fill:#000;fill-opacity:1;stroke:none;font-family:DejaVu Sans;-inkscape-font-specification:DejaVu Sans"><tspan id="tspan5667" x="768" y="60">1. Version information</tspan></text><text id="text5665-5" x="768" y="140" xml:space="preserve" style="font-size:32px;font-style:normal;font-variant:normal;font-weight:400;font-stretch:normal;line-height:125%;letter-spacing:0;word-spacing:0;fill:#000;fill-opacity:1;stroke:none;overflow:visible;font-family:DejaVu Sans;-inkscape-font-specification:DejaVu Sans"><tspan id="tspan5667-6" x="768" y="140">2. Format information</tspan></text><text id="text5665-5-1" x="768" y="220" xml:space="preserve" style="font-size:32px;font-style:normal;font-variant:normal;font-weight:400;font-stretch:normal;line-height:125%;letter-spacing:0;word-spacing:0;fill:#000;fill-opacity:1;stroke:none;overflow:visible;font-family:DejaVu Sans;-inkscape-font-specification:DejaVu Sans"><tspan id="tspan5667-6-6" x="768" y="220">3. Data and error correction keys</tspan></text><text id="text5665-5-15" x="768" y="300" xml:space="preserve" style="font-size:32px;font-style:normal;font-variant:normal;font-weight:400;font-stretch:normal;line-height:125%;letter-spacing:0;word-spacing:0;fill:#000;fill-opacity:1;stroke:none;overflow:visible;font-family:DejaVu Sans;-inkscape-font-specification:DejaVu Sans"><tspan id="tspan5667-6-61" x="768" y="300">4. Required patterns</tspan></text><text id="text5665-5-15-2" x="912" y="396" xml:space="preserve" style="font-size:32px;font-style:normal;font-variant:normal;font-weight:400;font-stretch:normal;line-height:125%;letter-spacing:0;word-spacing:0;fill:#000;fill-opacity:1;stroke:none;overflow:visible;font-family:DejaVu Sans;-inkscape-font-specification:DejaVu Sans"><tspan id="tspan5667-6-61-1" x="912" y="396">4.1. Position</tspan></text><text id="text5665-5-15-2-0" x="912" y="508" xml:space="preserve" style="font-size:32px;font-style:normal;font-variant:normal;font-weight:400;font-stretch:normal;line-height:125%;letter-spacing:0;word-spacing:0;fill:#000;fill-opacity:1;stroke:none;overflow:visible;font-family:DejaVu Sans;-inkscape-font-specification:DejaVu Sans"><tspan id="tspan5667-6-61-1-5" x="912" y="508">4.2. Alignment</tspan></text><text id="text5665-5-15-2-8" x="912" y="604" xml:space="preserve" style="font-size:32px;font-style:normal;font-variant:normal;font-weight:400;font-stretch:normal;line-height:125%;letter-spacing:0;word-spacing:0;fill:#000;fill-opacity:1;stroke:none;overflow:visible;font-family:DejaVu Sans;-inkscape-font-specification:DejaVu Sans"><tspan id="tspan5667-6-61-1-7" x="912" y="604">4.3. Timing</tspan></text><text id="text5665-5-0" x="768" y="700" xml:space="preserve" style="font-size:32px;font-style:normal;font-variant:normal;font-weight:400;font-stretch:normal;line-height:125%;letter-spacing:0;word-spacing:0;fill:#000;fill-opacity:1;stroke:none;overflow:visible;font-family:DejaVu Sans;-inkscape-font-specification:DejaVu Sans"><tspan id="tspan5667-6-4" x="768" y="700">5. Quiet zone</tspan></text></svg>